<svg width="45" height="64" viewBox="0 0 45 64" fill="none" xmlns="http://www.w3.org/2000/svg">
<path d="M44.4375 64H0.523438V54.7617L16.293 38.8203C19.4727 35.5547 22.0221 32.8333 23.9414 30.6562C25.8893 28.4505 27.293 26.4453 28.1523 24.6406C29.0404 22.8359 29.4844 20.9023 29.4844 18.8398C29.4844 16.3477 28.7826 14.4857 27.3789 13.2539C26.0039 11.9935 24.1562 11.3633 21.8359 11.3633C19.401 11.3633 17.0378 11.9219 14.7461 13.0391C12.4544 14.1562 10.0625 15.7461 7.57031 17.8086L0.351562 9.25781C2.15625 7.71094 4.0612 6.25 6.06641 4.875C8.10026 3.5 10.4492 2.39714 13.1133 1.56641C15.806 0.707031 19.0286 0.277344 22.7812 0.277344C26.9062 0.277344 30.444 1.02214 33.3945 2.51172C36.3737 4.0013 38.6654 6.03516 40.2695 8.61328C41.8737 11.1628 42.6758 14.056 42.6758 17.293C42.6758 20.7591 41.9883 23.9245 40.6133 26.7891C39.2383 29.6536 37.2331 32.4896 34.5977 35.2969C31.9909 38.1042 28.8398 41.2122 25.1445 44.6211L17.0664 52.2266V52.8281H44.4375V64Z" fill="url(#paint0_linear_3202_29294)"/>
<defs>
<linearGradient id="paint0_linear_3202_29294" x1="-3" y1="15.011" x2="41.6317" y2="40.9553" gradientUnits="userSpaceOnUse">
<stop stop-color="#FF5912"/>
<stop offset="1" stop-color="#141314" stop-opacity="0.38"/>
</linearGradient>
</defs>
</svg>
