<svg width="71" height="93" viewBox="0 0 71 93" fill="none" xmlns="http://www.w3.org/2000/svg">
<path d="M70.1729 73.7666H59.001V93H39.8311V73.7666H0.22168V60.1191L40.9102 0.197266H59.001V58.5322H70.1729V73.7666ZM39.8311 58.5322V42.79C39.8311 41.3089 39.8522 39.5527 39.8945 37.5215C39.9792 35.4902 40.0638 33.459 40.1484 31.4277C40.2331 29.3965 40.3177 27.598 40.4023 26.0322C40.5293 24.4242 40.6139 23.3027 40.6562 22.668H40.1484C39.3444 24.403 38.498 26.0957 37.6094 27.7461C36.7207 29.3542 35.6839 31.0469 34.499 32.8242L17.4873 58.5322H39.8311Z" fill="url(#paint0_linear_3141_28830)"/>
<defs>
<linearGradient id="paint0_linear_3141_28830" x1="-2" y1="12" x2="73" y2="43" gradientUnits="userSpaceOnUse">
<stop stop-color="#FF5912"/>
<stop offset="1" stop-color="#141314" stop-opacity="0.38"/>
</linearGradient>
</defs>
</svg>
