<svg width="44" height="65" viewBox="0 0 44 65" fill="none" xmlns="http://www.w3.org/2000/svg">
<path d="M41.9883 15.2305C41.9883 18.1237 41.3867 20.6302 40.1836 22.75C38.9805 24.8698 37.3477 26.6029 35.2852 27.9492C33.2513 29.2956 30.9596 30.2839 28.4102 30.9141V31.1719C33.4518 31.8021 37.276 33.349 39.8828 35.8125C42.5182 38.276 43.8359 41.5703 43.8359 45.6953C43.8359 49.362 42.9336 52.6419 41.1289 55.5352C39.3529 58.4284 36.6029 60.7057 32.8789 62.3672C29.1549 64.0286 24.3568 64.8594 18.4844 64.8594C15.0182 64.8594 11.7812 64.5729 8.77344 64C5.79427 63.4557 2.98698 62.6107 0.351562 61.4648V50.1641C3.04427 51.5391 5.86589 52.5846 8.81641 53.3008C11.7669 53.9883 14.5169 54.332 17.0664 54.332C21.8216 54.332 25.1445 53.5156 27.0352 51.8828C28.9544 50.2214 29.9141 47.901 29.9141 44.9219C29.9141 43.1745 29.4701 41.6992 28.582 40.4961C27.694 39.293 26.1471 38.3763 23.9414 37.7461C21.7643 37.1159 18.7135 36.8008 14.7891 36.8008H10.0195V26.6172H14.875C18.7422 26.6172 21.6784 26.2591 23.6836 25.543C25.7174 24.7982 27.0924 23.7956 27.8086 22.5352C28.5534 21.2461 28.9258 19.7852 28.9258 18.1523C28.9258 15.918 28.2383 14.1706 26.8633 12.9102C25.4883 11.6497 23.1966 11.0195 19.9883 11.0195C17.9831 11.0195 16.1497 11.2773 14.4883 11.793C12.8555 12.2799 11.3802 12.8815 10.0625 13.5977C8.74479 14.2852 7.58464 14.9583 6.58203 15.6172L0.4375 6.46484C2.90104 4.6888 5.77995 3.21354 9.07422 2.03906C12.3971 0.864583 16.3503 0.277344 20.9336 0.277344C27.4076 0.277344 32.5352 1.58073 36.3164 4.1875C40.0977 6.79427 41.9883 10.4753 41.9883 15.2305Z" fill="url(#paint0_linear_3202_29303)"/>
<defs>
<linearGradient id="paint0_linear_3202_29303" x1="-3" y1="15.011" x2="41.6317" y2="40.9553" gradientUnits="userSpaceOnUse">
<stop stop-color="#FF5912"/>
<stop offset="1" stop-color="#141314" stop-opacity="0.38"/>
</linearGradient>
</defs>
</svg>
