<svg width="66" height="97" viewBox="0 0 66 97" fill="none" xmlns="http://www.w3.org/2000/svg">
<path d="M62.46 22.9541C62.46 27.2282 61.5713 30.931 59.7939 34.0625C58.0166 37.194 55.6045 39.7542 52.5576 41.7432C49.5531 43.7321 46.1676 45.1921 42.4014 46.123V46.5039C49.8493 47.4349 55.4987 49.7201 59.3496 53.3594C63.2428 56.9987 65.1895 61.8652 65.1895 67.959C65.1895 73.3757 63.8564 78.221 61.1904 82.4951C58.5667 86.7692 54.5042 90.1335 49.0029 92.5879C43.5016 95.0423 36.4134 96.2695 27.7383 96.2695C22.6178 96.2695 17.8359 95.8464 13.3926 95C8.99154 94.196 4.8444 92.9476 0.951172 91.2549V74.5605C4.92904 76.5918 9.09733 78.1364 13.4561 79.1943C17.8148 80.21 21.8773 80.7178 25.6436 80.7178C32.6683 80.7178 37.5771 79.5117 40.3701 77.0996C43.2054 74.6452 44.623 71.2174 44.623 66.8164C44.623 64.235 43.9671 62.0557 42.6553 60.2783C41.3434 58.501 39.0583 57.1468 35.7998 56.2158C32.5837 55.2848 28.0768 54.8193 22.2793 54.8193H15.2334V39.7754H22.4062C28.1191 39.7754 32.4567 39.2464 35.4189 38.1885C38.4235 37.0882 40.4548 35.6071 41.5127 33.7451C42.613 31.8408 43.1631 29.6826 43.1631 27.2705C43.1631 23.9697 42.1475 21.3883 40.1162 19.5264C38.085 17.6644 34.6995 16.7334 29.96 16.7334C26.9977 16.7334 24.2894 17.1143 21.835 17.876C19.4229 18.5954 17.2435 19.484 15.2969 20.542C13.3503 21.5576 11.6364 22.5521 10.1553 23.5254L1.07812 10.0049C4.71745 7.38118 8.97038 5.20182 13.8369 3.4668C18.7458 1.73177 24.5856 0.864258 31.3564 0.864258C40.9202 0.864258 48.4951 2.78971 54.0811 6.64062C59.667 10.4915 62.46 15.9294 62.46 22.9541Z" fill="url(#paint0_linear_3141_28818)"/>
<defs>
<linearGradient id="paint0_linear_3141_28818" x1="-4" y1="14" x2="71" y2="45" gradientUnits="userSpaceOnUse">
<stop stop-color="#FF5912"/>
<stop offset="1" stop-color="#141314" stop-opacity="0.38"/>
</linearGradient>
</defs>
</svg>
