<svg width="48" height="63" viewBox="0 0 48 63" fill="none" xmlns="http://www.w3.org/2000/svg">
<path d="M47.8555 49.9805H40.293V63H27.3164V49.9805H0.503906V40.7422L28.0469 0.179688H40.293V39.668H47.8555V49.9805ZM27.3164 39.668V29.0117C27.3164 28.0091 27.3307 26.8203 27.3594 25.4453C27.4167 24.0703 27.474 22.6953 27.5312 21.3203C27.5885 19.9453 27.6458 18.7279 27.7031 17.668C27.7891 16.5794 27.8464 15.8203 27.875 15.3906H27.5312C26.987 16.5651 26.4141 17.7109 25.8125 18.8281C25.2109 19.9167 24.5091 21.0625 23.707 22.2656L12.1914 39.668H27.3164Z" fill="url(#paint0_linear_3202_29312)"/>
<defs>
<linearGradient id="paint0_linear_3202_29312" x1="-0.999998" y1="14.011" x2="43.6317" y2="39.9553" gradientUnits="userSpaceOnUse">
<stop stop-color="#FF5912"/>
<stop offset="1" stop-color="#141314" stop-opacity="0.38"/>
</linearGradient>
</defs>
</svg>
