<svg width="282" height="88" viewBox="0 0 282 88" fill="none" xmlns="http://www.w3.org/2000/svg">
<g clip-path="url(#clip0_3178_31676)">
<path d="M0 11.7333C0 5.25319 4.99035 0 11.1462 0H270.854C277.01 0 282 5.2532 282 11.7333V76.2667C282 82.747 277.01 88 270.854 88H11.1462C4.99034 88 0 82.747 0 76.2667V11.7333Z" fill="#141314"/>
<path fill-rule="evenodd" clip-rule="evenodd" d="M0 76.2667V11.7333C0 5.2532 4.99034 0 11.1462 0H270.854C277.01 0 282 5.25319 282 11.7333V76.2667C282 82.747 277.01 88 270.854 88H11.1462C4.99035 88 0 82.747 0 76.2667ZM1.67194 76.2667V11.7333C1.67194 6.22524 5.91375 1.76 11.1462 1.76H270.854C276.086 1.76 280.328 6.22524 280.328 11.7333V76.2667C280.328 81.7749 276.086 86.24 270.854 86.24H11.1462C5.91375 86.24 1.67194 81.7749 1.67194 76.2667Z" fill="white" fill-opacity="0.3"/>
<path d="M64.0849 45.7892C64.0558 40.637 66.2801 36.7539 70.7724 33.8906C68.2599 30.1133 64.459 28.0358 59.4486 27.6354C54.7045 27.2425 49.5142 30.5364 47.6137 30.5364C45.6052 30.5364 41.0124 27.7713 37.3986 27.7713C29.9406 27.8923 22.0146 34.0115 22.0146 46.4616C22.0146 50.1407 22.6554 53.9407 23.9367 57.854C25.6501 63.0064 31.8266 75.6301 38.2696 75.4261C41.6387 75.3429 44.0215 72.9178 48.4055 72.9178C52.6601 72.9178 54.8629 75.4261 58.6209 75.4261C65.1213 75.3277 70.7076 63.8526 72.3343 58.6848C63.6169 54.3713 64.0849 46.0537 64.0849 45.7892ZM56.5184 22.7475C60.1684 18.1996 59.8373 14.0597 59.7295 12.5714C56.5044 12.7679 52.7753 14.8756 50.6516 17.4668C48.312 20.247 46.937 23.6843 47.2322 27.5598C50.7164 27.8394 53.8983 25.9583 56.5184 22.7475Z" fill="white"/>
<path d="M102.736 63.9047H99.1331L97.1597 57.1349H90.3012L88.4214 63.9047H84.9141L91.7094 40.8571H95.9066L102.736 63.9047ZM96.5649 54.2946L94.7803 48.2764C94.592 47.6616 94.2378 46.2138 93.716 43.9346H93.6529C93.4451 44.9149 93.1104 46.3627 92.6501 48.2764L90.8976 54.2946H96.5649Z" fill="white"/>
<path d="M120.557 55.3457C120.557 58.0907 119.857 60.2603 118.456 61.8533C117.202 63.2712 115.643 63.9793 113.784 63.9793C111.776 63.9793 110.334 63.2155 109.456 61.6885H109.392V70.1905H106.006V52.7875C106.006 51.0618 105.963 49.2907 105.881 47.4742H108.859L109.048 50.0325H109.111C110.24 48.1049 111.954 47.1429 114.254 47.1429C116.052 47.1429 117.552 47.8947 118.753 49.4C119.957 50.9071 120.557 52.8884 120.557 55.3457ZM117.108 55.4769C117.108 53.906 116.774 52.6109 116.104 51.5916C115.372 50.5286 114.389 49.9971 113.157 49.9971C112.321 49.9971 111.562 50.2932 110.884 50.8768C110.204 51.4655 109.759 52.2341 109.551 53.1861C109.446 53.6301 109.394 53.9934 109.394 54.2794V56.9704C109.394 58.1445 109.734 59.1353 110.413 59.9439C111.093 60.753 111.976 61.1568 113.063 61.1568C114.338 61.1568 115.331 60.6353 116.041 59.5959C116.752 58.5548 117.108 57.1824 117.108 55.4769Z" fill="white"/>
<path d="M138.379 55.3457C138.379 58.0907 137.678 60.2603 136.276 61.8533C135.023 63.2712 133.464 63.9793 131.604 63.9793C129.597 63.9793 128.154 63.2155 127.278 61.6885H127.214V70.1905H123.828V52.7875C123.828 51.0618 123.785 49.2907 123.702 47.4742H126.681L126.869 50.0325H126.933C128.061 48.1049 129.775 47.1429 132.076 47.1429C133.872 47.1429 135.373 47.8947 136.578 49.4C137.777 50.9071 138.379 52.8884 138.379 55.3457ZM134.929 55.4769C134.929 53.906 134.594 52.6109 133.924 51.5916C133.191 50.5286 132.211 49.9971 130.977 49.9971C130.14 49.9971 129.383 50.2932 128.703 50.8768C128.023 51.4655 127.58 52.2341 127.372 53.1861C127.268 53.6301 127.214 53.9934 127.214 54.2794V56.9704C127.214 58.1445 127.554 59.1353 128.231 59.9439C128.911 60.7513 129.794 61.1568 130.884 61.1568C132.159 61.1568 133.152 60.6353 133.862 59.5959C134.573 58.5548 134.929 57.1824 134.929 55.4769Z" fill="white"/>
<path d="M159.346 57.2951C159.346 59.1993 158.697 60.749 157.395 61.9449C155.964 63.2522 153.971 63.9047 151.411 63.9047C149.047 63.9047 147.152 63.4406 145.718 62.5101L146.533 59.5209C148.078 60.4733 149.774 60.9506 151.621 60.9506C152.946 60.9506 153.978 60.6445 154.719 60.0356C155.457 59.4267 155.825 58.609 155.825 57.5895C155.825 56.6811 155.521 55.9156 154.912 55.2948C154.306 54.674 153.294 54.097 151.882 53.5637C148.035 52.1018 146.114 49.9602 146.114 47.144C146.114 45.3035 146.787 43.7945 148.136 42.6202C149.48 41.4443 151.272 40.8571 153.514 40.8571C155.513 40.8571 157.173 41.2121 158.499 41.9203L157.62 44.8442C156.381 44.1578 154.982 43.8146 153.415 43.8146C152.177 43.8146 151.21 44.1259 150.516 44.745C149.93 45.2985 149.637 45.9731 149.637 46.7722C149.637 47.6571 149.972 48.3889 150.645 48.9642C151.231 49.4959 152.296 50.0712 153.841 50.692C155.731 51.4675 157.119 52.3743 158.012 53.414C158.902 54.4503 159.346 55.7474 159.346 57.2951Z" fill="white"/>
<path d="M169.829 49.816H166.035V57.8286C166.035 59.8667 166.704 60.8849 168.044 60.8849C168.659 60.8849 169.169 60.8279 169.573 60.7146L169.668 63.499C168.99 63.7685 168.097 63.9048 166.991 63.9048C165.632 63.9048 164.57 63.4626 163.803 62.5807C163.039 61.6964 162.655 60.2137 162.655 58.1313V49.8126H160.395V47.061H162.655V44.0393L166.035 42.9524V47.061H169.829V49.816Z" fill="white"/>
<path d="M187.651 55.3739C187.651 57.844 186.945 59.872 185.536 61.4581C184.059 63.0906 182.098 63.9048 179.654 63.9048C177.298 63.9048 175.422 63.1226 174.024 61.5582C172.625 59.9944 171.926 58.0199 171.926 55.6402C171.926 53.1499 172.645 51.1102 174.089 49.5243C175.529 47.9367 177.473 47.1429 179.918 47.1429C182.273 47.1429 184.169 47.925 185.6 49.4908C186.968 51.0097 187.651 52.9708 187.651 55.3739ZM183.95 55.4894C183.95 54.0073 183.634 52.7363 182.993 51.6762C182.245 50.3935 181.176 49.7537 179.791 49.7537C178.357 49.7537 177.267 50.3951 176.52 51.6762C175.879 52.738 175.563 54.0291 175.563 55.5564C175.563 57.0385 175.879 58.3096 176.52 59.3677C177.291 60.6508 178.369 61.2906 179.759 61.2906C181.121 61.2906 182.19 60.6376 182.961 59.3346C183.619 58.2543 183.95 56.9698 183.95 55.4894Z" fill="white"/>
<path d="M199.183 50.6894C198.838 50.6226 198.47 50.5884 198.085 50.5884C196.859 50.5884 195.912 51.0728 195.246 52.0433C194.666 52.8991 194.375 53.9808 194.375 55.2868V63.9048H190.894L190.926 52.6526C190.926 50.7596 190.882 49.0359 190.796 47.4818H193.829L193.957 50.6243H194.053C194.421 49.5443 195.001 48.6748 195.795 48.0226C196.57 47.4356 197.408 47.1429 198.312 47.1429C198.634 47.1429 198.924 47.1668 199.183 47.2096V50.6894Z" fill="white"/>
<path d="M213.859 54.793C213.859 55.434 213.819 55.9743 213.734 56.4156H203.513C203.553 58.0063 204.047 59.2228 204.996 60.0622C205.857 60.8121 206.971 61.188 208.339 61.188C209.853 61.188 211.233 60.9347 212.475 60.426L213.009 62.9096C211.558 63.5742 209.845 63.9048 207.868 63.9048C205.49 63.9048 203.624 63.1697 202.265 61.7013C200.91 60.2329 200.23 58.2614 200.23 55.788C200.23 53.3599 200.862 51.3379 202.126 49.7253C203.449 48.0037 205.237 47.1429 207.488 47.1429C209.698 47.1429 211.371 48.0037 212.507 49.7253C213.406 51.0929 213.859 52.7844 213.859 54.793ZM210.61 53.865C210.632 52.8045 210.41 51.8883 209.949 51.1147C209.359 50.1197 208.453 49.623 207.233 49.623C206.119 49.623 205.213 50.1079 204.521 51.0812C203.954 51.8547 203.617 52.7827 203.513 53.8634H210.61V53.865Z" fill="white"/>
<path d="M87.8385 26.3837H89.6226C91.3461 26.3837 92.356 27.1966 92.356 28.5667V28.585C92.356 29.8546 91.2937 30.6859 89.675 30.6859C88.0212 30.6859 86.9684 30.0008 86.8291 28.786L86.8202 28.7129H84.9141L84.923 28.8225C85.0533 30.9965 86.8988 32.4762 89.675 32.4762C92.3643 32.4762 94.349 30.8503 94.349 28.6764V28.6581C94.349 26.8861 93.3129 25.6347 91.6335 25.4155V25.3424C93.0261 25.0045 93.9658 23.7804 93.9658 22.319V22.3007C93.9658 20.2638 92.2423 18.8571 89.7184 18.8571C87.0898 18.8571 85.3753 20.2181 85.2449 22.4469L85.236 22.5747H87.1076L87.116 22.4469C87.2642 21.3142 88.1782 20.6474 89.6577 20.6474C91.1634 20.6474 92.034 21.3508 92.034 22.52V22.5382C92.034 23.7987 91.0676 24.6664 89.5708 24.6664H87.8385V26.3837Z" fill="white"/>
<path d="M101.424 32.4762C102.573 32.4762 103.567 31.7848 104.067 30.6997H104.108V32.2937H105.881V25.332C105.881 23.3059 104.543 22 102.434 22C100.308 22 99.0194 23.3347 98.896 25.0728L98.8881 25.1784H100.562L100.579 25.0919C100.727 24.2854 101.359 23.7188 102.385 23.7188C103.485 23.7188 104.108 24.391 104.108 25.5048V26.2634L101.753 26.4267C99.7087 26.5707 98.543 27.6462 98.543 29.4034V29.4226C98.543 31.2374 99.7003 32.4762 101.424 32.4762ZM100.333 29.3746V29.3554C100.333 28.5008 100.924 27.9535 101.991 27.8766L104.108 27.723V28.5104C104.108 29.8259 103.156 30.815 101.909 30.815C100.956 30.815 100.333 30.258 100.333 29.3746Z" fill="white"/>
<path d="M116.364 24.5892V23.0476H110.074V32.4762H112.024V24.5892H116.364Z" fill="white"/>
<path d="M119.51 34.5714H121.34V29.9124H121.382C121.907 30.9909 122.932 31.6628 124.195 31.6628C126.431 31.6628 127.896 29.7974 127.896 26.8358V26.827C127.896 23.8565 126.439 22 124.169 22C122.898 22 121.916 22.6719 121.382 23.777H121.34V22.1768H119.51V34.5714ZM123.695 30.0185C122.314 30.0185 121.331 28.7631 121.331 26.8358V26.827C121.331 24.8909 122.305 23.6355 123.695 23.6355C125.135 23.6355 126.032 24.8467 126.032 26.827V26.8358C126.032 28.7984 125.135 30.0185 123.695 30.0185Z" fill="white"/>
<path d="M132.829 35.619C134.558 35.619 135.482 34.8664 136.137 32.913L139.428 23.0476H137.513L135.289 30.7177H135.23L133.005 23.0476H131.041L134.257 32.4829L134.105 32.9309C133.803 33.8449 133.333 34.0868 132.477 34.0868C132.233 34.0868 132.023 34.051 131.881 34.0151V35.5294C132.099 35.5742 132.477 35.619 132.829 35.619Z" fill="white"/>
<path d="M145.228 32.4762C147.414 32.4762 148.863 31.2206 148.863 29.342V29.3228C148.863 28.1439 148.218 27.3387 147.041 27.0704V26.9937C147.998 26.7445 148.617 25.8915 148.617 24.8083V24.7892C148.617 23.0639 147.363 22 145.312 22C143.304 22 141.991 23.0735 141.779 24.8659L141.771 24.9426H143.516L143.524 24.8754C143.66 24.1087 144.329 23.639 145.287 23.639C146.253 23.639 146.829 24.147 146.829 25.0096V25.0288C146.829 25.9297 146.278 26.3898 145.202 26.3898H143.922V27.8947H145.21C146.448 27.8947 147.041 28.3548 147.041 29.3228V29.342C147.041 30.2621 146.346 30.8276 145.219 30.8276C144.211 30.8276 143.55 30.3867 143.347 29.572L143.321 29.4762H141.524L141.533 29.5624C141.711 31.3452 143.143 32.4762 145.228 32.4762Z" fill="white"/>
<path d="M153.056 32.4762H154.997L159.4 25.8529H159.482V32.4762H161.442V23.0476H159.501L155.098 29.644H155.006V23.0476H153.056V32.4762Z" fill="white"/>
<path d="M171.925 23.0476H164.587V24.5892H167.346V32.4762H169.166V24.5892H171.925V23.0476Z" fill="white"/>
<path d="M179.399 32.4762C181.624 32.4762 183.047 31.0193 183.335 29.4187L183.361 29.3132H181.563L181.537 29.3899C181.302 30.1471 180.56 30.7797 179.443 30.7797C177.942 30.7797 176.99 29.6679 176.955 27.7605H183.457V27.0608C183.457 24.032 181.877 22 179.303 22C176.729 22 175.07 24.1087 175.07 27.262V27.2717C175.07 30.4538 176.702 32.4762 179.399 32.4762ZM179.312 23.6965C180.542 23.6965 181.441 24.5495 181.589 26.294H176.982C177.156 24.6071 178.09 23.6965 179.312 23.6965Z" fill="white"/>
<path d="M191.844 32.4762H196.003C197.962 32.4762 199.182 31.4186 199.182 29.7695V29.7516C199.182 28.5954 198.409 27.7529 197.24 27.5916V27.5199C198.108 27.3496 198.778 26.4623 198.778 25.4854V25.4675C198.778 23.9708 197.713 23.0476 195.951 23.0476H191.844V32.4762ZM193.683 26.9374V24.4816H195.565C196.458 24.4816 196.939 24.9029 196.939 25.6826V25.7005C196.939 26.534 196.424 26.9374 195.375 26.9374H193.683ZM193.683 31.0422V28.3445H195.444C196.664 28.3445 197.274 28.7657 197.274 29.6709V29.6888C197.274 30.5851 196.707 31.0422 195.659 31.0422H193.683Z" fill="white"/>
</g>
<defs>
<clipPath id="clip0_3178_31676">
<rect width="282" height="88" fill="white"/>
</clipPath>
</defs>
</svg>
