<svg width="282" height="87" viewBox="0 0 282 87" fill="none" xmlns="http://www.w3.org/2000/svg">
<g clip-path="url(#clip0_3178_31659)">
<path d="M0 11.6C0 5.19349 4.99035 0 11.1462 0H270.854C277.01 0 282 5.1935 282 11.6V75.4C282 81.8067 277.01 87 270.854 87H11.1462C4.99034 87 0 81.8067 0 75.4V11.6Z" fill="#141314"/>
<path fill-rule="evenodd" clip-rule="evenodd" d="M0 75.4V11.6C0 5.1935 4.99034 0 11.1462 0H270.854C277.01 0 282 5.19349 282 11.6V75.4C282 81.8067 277.01 87 270.854 87H11.1462C4.99035 87 0 81.8067 0 75.4ZM1.67194 75.4V11.6C1.67194 6.1545 5.91375 1.74 11.1462 1.74H270.854C276.086 1.74 280.328 6.1545 280.328 11.6V75.4C280.328 80.8456 276.086 85.26 270.854 85.26H11.1462C5.91375 85.26 1.67194 80.8456 1.67194 75.4Z" fill="white" fill-opacity="0.3"/>
<path d="M142.869 47.2252C137.854 47.2252 133.711 51.2973 133.711 56.8806C133.711 62.4185 137.811 66.5362 142.869 66.5362C147.927 66.5362 152.026 62.4636 152.026 56.8806C152.026 51.2973 147.927 47.2252 142.869 47.2252ZM142.869 62.6941C140.121 62.6941 137.724 60.2678 137.724 56.8375C137.724 53.3596 140.122 50.9811 142.869 50.9811C145.615 50.9811 148.013 53.3596 148.013 56.8375C148.013 60.2678 145.615 62.6941 142.869 62.6941ZM122.94 47.2252C117.882 47.2252 113.783 51.2973 113.783 56.8806C113.783 62.4185 117.882 66.5362 122.94 66.5362C127.998 66.5362 132.098 62.4636 132.098 56.8806C132.098 51.2973 127.998 47.2252 122.94 47.2252H122.94ZM122.94 62.6941C120.192 62.6941 117.796 60.2678 117.796 56.8375C117.796 53.3596 120.195 50.9811 122.94 50.9811C125.689 50.9811 128.085 53.3596 128.085 56.8375C128.085 60.2678 125.729 62.6941 122.94 62.6941ZM99.2621 50.2V54.2721H108.506C108.243 56.5599 107.504 58.2532 106.413 59.398C105.062 60.8162 102.969 62.3727 99.2621 62.3727C93.5487 62.3727 89.1462 57.5224 89.1462 51.5272C89.1462 45.5321 93.551 40.5901 99.2621 40.5901C102.357 40.5901 104.582 41.8718 106.24 43.5198L108.985 40.6357C106.673 38.3028 103.578 36.5185 99.2621 36.5185C91.4555 36.5185 84.9141 43.2442 84.9141 51.4361C84.9141 59.6285 91.4555 66.3544 99.2621 66.3544C103.491 66.3544 106.632 64.8905 109.161 62.1434C111.734 59.4438 112.518 55.6445 112.518 52.579C112.518 51.6184 112.432 50.7486 112.3 50.016L99.2621 50.2ZM196.155 53.3571C195.414 51.2061 193.06 47.2252 188.349 47.2252C183.638 47.2252 179.758 51.1154 179.758 56.8806C179.758 62.2795 183.638 66.5362 188.785 66.5362C192.971 66.5362 195.37 63.8366 196.372 62.2795L193.277 60.0831C192.229 61.6859 190.835 62.7369 188.785 62.7369C186.735 62.7369 185.298 61.7763 184.38 59.808L196.546 54.4545L196.155 53.3571ZM183.771 56.6075C183.684 52.8997 186.519 50.9786 188.522 50.9786C190.137 50.9786 191.445 51.8024 191.924 53.0385L183.771 56.6075ZM173.871 65.8963H177.884V37.6153H173.871V65.8963ZM167.332 49.3762H167.202C166.286 48.2313 164.586 47.2252 162.405 47.2252C157.825 47.2252 153.683 51.4817 153.683 56.8806C153.683 62.2795 157.869 66.491 162.405 66.491C164.584 66.491 166.285 65.484 167.202 64.2941H167.332V65.6664C167.332 69.3748 165.456 71.3407 162.448 71.3407C160.006 71.3407 158.479 69.4651 157.869 67.9086L154.382 69.4651C155.383 72.0281 158.045 75.1852 162.448 75.1852C167.157 75.1852 171.126 72.2562 171.126 65.1638V47.8194H167.332V49.3762ZM162.754 62.6941C160.006 62.6941 157.696 60.2678 157.696 56.8831C157.696 53.4984 160.008 51.0262 162.754 51.0262C165.458 51.0262 167.638 53.4984 167.638 56.8831C167.636 60.2221 165.456 62.6941 162.754 62.6941ZM214.862 37.6158H205.269V65.8963H209.282V55.187H214.862C219.311 55.187 223.671 51.7999 223.671 46.4014C223.671 41.0025 219.311 37.6153 214.862 37.6153V37.6158ZM214.992 51.2542H209.323V41.5507H214.992C217.958 41.5507 219.702 44.1592 219.702 46.4009C219.66 48.5976 217.96 51.2542 214.992 51.2542ZM239.675 47.1795C236.797 47.1795 233.789 48.5069 232.567 51.5272L236.101 53.0841C236.886 51.5272 238.281 51.0242 239.764 51.0242C241.857 51.0242 243.95 52.351 243.994 54.684V54.9595C243.252 54.5021 241.727 53.8602 239.808 53.8602C235.971 53.8602 232.088 56.1024 232.088 60.222C232.088 64.0207 235.229 66.4453 238.717 66.4453C241.421 66.4453 242.903 65.1638 243.818 63.6542H243.948V65.8512H247.828V55.0046C247.785 50.0175 244.254 47.1791 239.675 47.1791V47.1795ZM239.196 62.6483C237.888 62.6483 236.055 61.961 236.055 60.2695C236.055 58.0731 238.322 57.2493 240.285 57.2493C242.028 57.2493 242.857 57.6612 243.948 58.2098C243.643 60.8185 241.506 62.6483 239.196 62.6483ZM261.827 47.8219L257.248 60.0396H257.118L252.366 47.8214H248.05L255.2 64.9357L251.144 74.5001H255.33L266.275 47.8214H261.826L261.827 47.8219ZM225.896 65.8963H229.908V37.6153H225.896V65.8963Z" fill="white"/>
<path d="M97.4945 23.7595V27.9259H95.7468V25.4808H87.7106V27.9259H85.9629V23.7595H87.2696C87.7053 23.159 88.0268 22.2957 88.2333 21.1696C88.4404 20.0329 88.5436 18.7996 88.5436 17.4698V13.963H96.2041V23.7595H97.4945ZM94.3747 23.7595V15.6842H90.3567V17.7754C90.3567 18.9766 90.2587 20.0919 90.0627 21.1214C89.8777 22.1509 89.5948 23.0303 89.2133 23.7595H94.3747Z" fill="white"/>
<path d="M104.309 25.7778C103.231 25.7778 102.252 25.5198 101.371 25.0038C100.491 24.4773 99.7963 23.7612 99.2884 22.8557C98.7911 21.9501 98.543 20.955 98.543 19.8704C98.543 18.7857 98.7911 17.7959 99.2884 16.9009C99.7963 15.9953 100.491 15.2792 101.371 14.7527C102.252 14.2262 103.231 13.963 104.309 13.963C105.386 13.963 106.36 14.2262 107.231 14.7527C108.111 15.2792 108.805 15.9953 109.312 16.9009C109.82 17.7959 110.075 18.7857 110.075 19.8704C110.075 20.955 109.82 21.9501 109.312 22.8557C108.815 23.7612 108.126 24.4773 107.246 25.0038C106.365 25.5198 105.386 25.7778 104.309 25.7778ZM104.309 24.0877C105.044 24.0877 105.717 23.9087 106.329 23.5506C106.94 23.1926 107.422 22.6977 107.774 22.0659C108.126 21.4235 108.302 20.6917 108.302 19.8704C108.302 19.049 108.126 18.3224 107.774 17.6906C107.422 17.0483 106.94 16.5481 106.329 16.1901C105.717 15.832 105.044 15.653 104.309 15.653C103.573 15.653 102.9 15.832 102.288 16.1901C101.677 16.5481 101.19 17.0483 100.827 17.6906C100.475 18.3224 100.299 19.049 100.299 19.8704C100.299 20.6917 100.475 21.4235 100.827 22.0659C101.19 22.6977 101.677 23.1926 102.288 23.5506C102.9 23.9087 103.573 24.0877 104.309 24.0877Z" fill="white"/>
<path d="M117.073 25.7778C115.969 25.7778 114.962 25.5198 114.05 25.0038C113.138 24.4878 112.422 23.777 111.903 22.8714C111.383 21.9659 111.123 20.9655 111.123 19.8704C111.123 18.7752 111.383 17.7748 111.903 16.8693C112.422 15.9637 113.138 15.2529 114.05 14.7369C114.962 14.2209 115.969 13.963 117.073 13.963C117.932 13.963 118.711 14.1209 119.411 14.4368C120.121 14.7527 120.747 15.2108 121.288 15.811L120.016 17.0272C119.623 16.5639 119.188 16.2217 118.711 16.0005C118.234 15.7689 117.687 15.653 117.073 15.653C116.309 15.653 115.609 15.8268 114.973 16.1743C114.347 16.5218 113.848 17.0167 113.477 17.659C113.106 18.2908 112.921 19.028 112.921 19.8704C112.921 20.7128 113.106 21.4551 113.477 22.0975C113.848 22.7293 114.347 23.2189 114.973 23.5664C115.609 23.9139 116.309 24.0877 117.073 24.0877C118.345 24.0877 119.427 23.5612 120.318 22.5082L121.606 23.7402C121.055 24.3825 120.392 24.8827 119.618 25.2407C118.843 25.5988 117.995 25.7778 117.073 25.7778Z" fill="white"/>
<path d="M125.93 15.7286H122.654V13.963H131.041V15.7286H127.765V25.7778H125.93V15.7286Z" fill="white"/>
<path d="M133.34 25.7778C132.946 25.7778 132.611 25.7078 132.334 25.5679V23.8086C132.685 24.0023 133.005 24.0992 133.292 24.0992C133.579 24.0992 133.808 24.0454 133.978 23.9378C134.149 23.8194 134.303 23.6042 134.441 23.2921L134.841 22.4528L131.041 13.963H133.037L135.703 20.3707H135.798L138.48 13.963H140.476L136.102 23.6795C135.782 24.4005 135.394 24.9331 134.936 25.2774C134.489 25.611 133.957 25.7778 133.34 25.7778Z" fill="white"/>
<path d="M141.524 13.963H149.911V25.7778H148.149V15.7286H143.287V25.7778H141.524V13.963Z" fill="white"/>
<path d="M153.056 13.963H154.748V18.8638H159.765V13.963H161.442V25.7778H159.765V20.6129H154.748V25.7778H153.056V13.963Z" fill="white"/>
<path d="M169.305 25.7778C168.228 25.7778 167.248 25.5198 166.368 25.0038C165.487 24.4773 164.793 23.7612 164.285 22.8557C163.788 21.9501 163.539 20.955 163.539 19.8704C163.539 18.7857 163.788 17.7959 164.285 16.9009C164.793 15.9953 165.487 15.2792 166.368 14.7527C167.248 14.2262 168.228 13.963 169.305 13.963C170.383 13.963 171.356 14.2262 172.227 14.7527C173.107 15.2792 173.802 15.9953 174.309 16.9009C174.817 17.7959 175.071 18.7857 175.071 19.8704C175.071 20.955 174.817 21.9501 174.309 22.8557C173.812 23.7612 173.123 24.4773 172.242 25.0038C171.362 25.5198 170.383 25.7778 169.305 25.7778ZM169.305 24.0877C170.041 24.0877 170.714 23.9087 171.325 23.5506C171.937 23.1926 172.419 22.6977 172.771 22.0659C173.123 21.4235 173.299 20.6917 173.299 19.8704C173.299 19.049 173.123 18.3224 172.771 17.6906C172.419 17.0483 171.937 16.5481 171.325 16.1901C170.714 15.832 170.041 15.653 169.305 15.653C168.569 15.653 167.896 15.832 167.285 16.1901C166.673 16.5481 166.187 17.0483 165.824 17.6906C165.472 18.3224 165.295 19.049 165.295 19.8704C165.295 20.6917 165.472 21.4235 165.824 22.0659C166.187 22.6977 166.673 23.1926 167.285 23.5506C167.896 23.9087 168.569 24.0877 169.305 24.0877Z" fill="white"/>
<path d="M180.312 13.963H184.771C185.401 13.963 185.981 14.1004 186.511 14.3755C187.053 14.6505 187.484 15.03 187.804 15.5141C188.125 15.9981 188.285 16.5316 188.285 17.1147C188.285 17.6977 188.136 18.2037 187.837 18.6328C187.55 19.0618 187.169 19.3863 186.694 19.6063V19.7053C187.29 19.9144 187.771 20.2609 188.136 20.7449C188.511 21.2289 188.699 21.7955 188.699 22.4445C188.699 23.0936 188.528 23.6711 188.185 24.1772C187.854 24.6832 187.401 25.0792 186.826 25.3652C186.263 25.6403 185.644 25.7778 184.97 25.7778H180.312V13.963ZM184.688 18.9133C185.219 18.9133 185.644 18.7483 185.964 18.4183C186.296 18.0882 186.462 17.7087 186.462 17.2797C186.462 16.8507 186.302 16.4766 185.981 16.1576C185.672 15.8276 185.263 15.6626 184.754 15.6626H182.169V18.9133H184.688ZM184.97 24.0616C185.533 24.0616 185.981 23.8856 186.312 23.5336C186.655 23.1816 186.826 22.7746 186.826 22.3125C186.826 21.8395 186.65 21.4325 186.296 21.0914C185.954 20.7394 185.49 20.5634 184.904 20.5634H182.169V24.0616H184.97Z" fill="white"/>
<path d="M59.2793 52.6296C66.0999 48.8229 71.2708 45.9226 71.7165 45.6973C73.142 44.9264 74.6148 42.8868 71.7165 41.3027C70.7806 40.8046 65.743 37.994 59.2793 34.3704L50.3193 43.5674L59.2787 52.6296H59.2793Z" fill="#FFD900"/>
<path d="M50.9856 42.963L23.0635 71.9409C23.7185 72.0301 24.4584 71.8511 25.3312 71.3571C27.1627 70.3253 46.5778 59.4069 59.7549 51.9501L50.9856 42.963Z" fill="#F43249"/>
<path d="M50.9967 42.9629L59.7549 33.8547C59.7549 33.8547 27.3331 15.5471 25.371 14.4668C24.6328 14.0125 23.8045 13.8783 23.0635 14.0125L50.9967 42.9624V42.9629Z" fill="#00EE76"/>
<path d="M51.3683 43.4089L23.0849 13.963C21.9369 14.2387 20.9668 15.2927 20.9668 17.4476V69.5061C20.9668 71.4793 21.7176 72.9006 23.1284 73.037L51.3678 43.4084L51.3683 43.4089Z" fill="#00D3FF"/>
</g>
<defs>
<clipPath id="clip0_3178_31659">
<rect width="282" height="87" fill="white"/>
</clipPath>
</defs>
</svg>
