<svg width="235" height="243" viewBox="0 0 235 243" fill="none" xmlns="http://www.w3.org/2000/svg">
<rect width="235" height="243" rx="12" fill="white"/>
<path d="M99.439 194.074V175.271H108.772V165.812H99.4716C99.4716 162.67 99.4716 159.511 99.4716 156.369H118.186V146.976H127.535V156.32H136.917V137.435H165.029V146.828H174.329V137.435H164.996V127.959H146.249V109.239H118.121V118.648H99.4716V137.517H108.755V146.927H99.4226V156.353H90.0736V146.91H61.9775V137.517H90.0736V62.0425H99.4716C99.4716 71.1231 99.4716 80.2038 99.4716 89.2844V90.3043H108.837V71.5015H118.17V90.3372H127.584V99.7304H174.427V109.14H183.809V118.632H174.476V128.091H183.776V146.976H193.174V165.828H183.874V184.648H193.043V194.074H211.758V203.483H183.776V222.319H174.427V212.909H155.631V203.483H146.282V194.074H164.931V184.648H118.202V194.024H99.439V194.074ZM155.631 165.779V156.402H146.331V165.762H155.664V175.156H174.329V165.779H155.631ZM136.868 165.779H127.666V175.106H136.933L136.868 165.779ZM155.68 118.517H164.947V109.173H155.68V118.517Z" fill="#141314"/>
<path d="M15.4941 90.4788V24.5586H81.3458V90.4788H15.4941ZM24.9438 34.0157V81.071H71.9454V34.0157H24.9438Z" fill="#141314"/>
<path d="M213.05 90.4788H147.198V24.5586H213.05V90.4788ZM203.65 33.9852H156.648V81.0358H203.65V33.9852Z" fill="#141314"/>
<path d="M15.4941 156.399H81.3458V222.319H15.4941V156.399ZM71.9314 165.856H24.925V212.911H71.9314V165.856Z" fill="#141314"/>
<path d="M99.6588 61.8329V43.1714H90.3848V24.5586H136.771V43.1388H127.675V52.4777H136.868V71.0905H127.61V61.8329H118.272V52.5266H108.998V61.8004H99.6425L99.6588 61.8329ZM108.981 43.1063H118.191V33.8975H108.981V43.1063Z" fill="#141314"/>
<path d="M62.5287 108.574V117.949H81.3458V127.308H53.1283V146.058H15.4941V127.406H24.8123V136.683H43.7116V108.574H62.5451H62.5287Z" fill="#141314"/>
<path d="M99.8426 193.883V203.367H109.334V212.835H118.791V222.319H90.3848V193.899H99.8095L99.8426 193.883Z" fill="#141314"/>
<path d="M43.9007 108.558H24.9409V117.622H15.4941V99.5264H43.8676V108.574L43.9007 108.558Z" fill="#141314"/>
<path d="M211.759 127.963H202.752V109.011H193.682V99.5264H211.759V127.963Z" fill="#141314"/>
<path d="M61.9945 108.574V99.5264H81.3457V108.543H61.9775L61.9945 108.574Z" fill="#141314"/>
<path d="M193.776 146.059V137.011H202.72V146.027H193.682L193.776 146.059Z" fill="#141314"/>
<path d="M202.72 156.399H211.758V165.447H202.72V156.399Z" fill="#141314"/>
<path d="M127.846 89.1861V80.1382H136.869V89.1544H127.83L127.846 89.1861Z" fill="#141314"/>
<path d="M99.4232 174.495H90.3848V165.447H99.3601V174.495H99.4232Z" fill="#141314"/>
<path d="M193.682 183.543V174.495H202.72V183.527H193.682V183.543Z" fill="#141314"/>
<path d="M184.643 117.67H193.681V126.67H184.643V117.623V117.67Z" fill="#141314"/>
<path d="M136.869 211.979H127.83V202.931H136.869V211.979Z" fill="#141314"/>
<path d="M156.205 211.979V221.026H147.198V212.01H156.237L156.205 211.979Z" fill="#141314"/>
<path d="M211.758 221.026H202.72V211.979H211.758V221.026Z" fill="#141314"/>
<path d="M136.805 137.011H127.83V127.963H136.869V137.011H136.805Z" fill="#141314"/>
<path d="M63.2689 71.0905H34.8623V42.6543H63.2689V71.0905Z" fill="#141314"/>
<path d="M165.274 71.0905V42.6543H193.681V71.0905H165.274Z" fill="#141314"/>
<path d="M34.8623 202.914V174.495H63.2689V202.931L34.8623 202.914Z" fill="#141314"/>
</svg>
