<svg width="74" height="76" viewBox="0 0 74 76" fill="none" xmlns="http://www.w3.org/2000/svg">
<path d="M0.5 76V60H3.88821V72.5381H16.2388V76H0.5Z" fill="white"/>
<path d="M18.4312 76V63.3065C18.4312 62.4041 18.7445 61.6348 19.3712 60.9986C20.0124 60.3477 20.7774 60.0222 21.6664 60.0222H30.9129C31.8019 60.0222 32.567 60.3477 33.2082 60.9986C33.8494 61.6348 34.17 62.4041 34.17 63.3065V76H30.7381V70.8516H21.8194V76H18.4312ZM21.8194 67.3897H30.7381V64.2164C30.7381 63.7282 30.7381 63.484 30.7381 63.484C30.7381 63.484 30.4976 63.484 30.0167 63.484H22.5408C22.0599 63.484 21.8194 63.484 21.8194 63.484C21.8194 63.484 21.8194 63.7282 21.8194 64.2164V67.3897Z" fill="white"/>
<path d="M37.4257 76V72.4716L47.9619 63.484H37.4257V60.0222H53.1644V63.5506L42.6282 72.5381H53.1644V76H37.4257Z" fill="white"/>
<path d="M62.7889 76V70.0305L55.5097 60.0222H59.5537L64.4939 66.3245L69.4123 60.0222H73.5L66.199 70.0527V76H62.7889Z" fill="white"/>
<rect x="42.499" y="10" width="10.0001" height="30" fill="white"/>
<rect width="10.0001" height="10" transform="matrix(1 0 0 -1 52.5 20)" fill="white"/>
<rect x="12.5" width="10.0001" height="30" fill="white"/>
<rect width="10.0001" height="10" transform="matrix(1 0 0 -1 32.5 10)" fill="white"/>
<rect width="10.0001" height="10" transform="matrix(1 0 0 -1 32.5 30)" fill="white"/>
<rect x="22.5" y="17" width="10.0001" height="30" fill="white"/>
</svg>
